<svg width="239" height="238" viewBox="0 0 239 238" fill="none" xmlns="http://www.w3.org/2000/svg">
<path d="M208.092 100.232C206.838 94.314 205.04 88.6206 202.699 83.1894C200.47 78.0203 197.792 73.1135 194.702 68.4876C191.368 63.5246 187.585 58.88 183.371 54.6661C178.914 50.2275 174.007 46.257 168.725 42.7923C163.762 39.5336 158.462 36.7618 152.881 34.5331C147.75 32.473 142.393 30.8436 136.85 29.7386C135.557 29.4764 134.265 29.2517 132.935 29.0644C132.542 28.9895 132.13 28.952 131.718 28.8959C130.763 28.7648 129.827 28.6524 128.871 28.54C128.441 28.4838 128.01 28.4464 127.579 28.4089C126.381 28.2966 125.182 28.2029 123.965 28.1467H123.553C122.073 28.0531 120.575 28.0156 119.076 28.0156C117.485 28.0156 115.911 28.0531 114.338 28.1467H113.945C112.653 28.2404 111.36 28.3527 110.068 28.4838C109.619 28.5213 109.169 28.5775 108.701 28.6337C107.69 28.746 106.697 28.8771 105.704 29.027C105.274 29.1019 104.843 29.1581 104.412 29.2142C103.026 29.439 101.659 29.6825 100.311 29.9634C94.3925 31.1994 88.6991 33.0161 83.2678 35.3571C78.0988 37.5858 73.192 40.264 68.5661 43.3542C63.6031 46.6878 58.9772 50.4709 54.7446 54.6848C50.3059 59.1234 46.3355 64.049 42.8708 69.3304C39.612 74.2934 36.8402 79.5935 34.6116 85.1746C32.5514 90.3062 30.9221 95.6625 29.8171 101.206C28.6747 106.956 28.0566 112.911 28.0566 118.998C28.0566 125.422 28.7309 131.696 30.0044 137.764C31.2405 143.682 33.0571 149.375 35.3982 154.807C37.6268 159.976 40.305 164.882 43.3952 169.508C46.7288 174.471 50.5119 179.116 54.7446 183.33C59.1832 187.769 64.1087 191.739 69.3901 195.204C74.3531 198.444 79.6533 201.234 85.2343 203.463C90.3659 205.523 95.7409 207.152 101.285 208.257C102.577 208.52 103.869 208.744 105.199 208.932C105.592 209.007 106.004 209.044 106.416 209.1C107.371 209.231 108.308 209.344 109.263 209.456C109.694 209.512 110.124 209.55 110.555 209.587C111.754 209.699 112.971 209.793 114.188 209.868C115.818 209.962 117.447 209.999 119.095 209.999C125.519 209.999 131.793 209.325 137.842 208.051C143.76 206.815 149.454 204.999 154.885 202.658C160.054 200.429 164.961 197.751 169.587 194.661C174.55 191.327 179.176 187.544 183.408 183.33C187.847 178.891 191.817 173.966 195.282 168.684C198.522 163.721 201.313 158.421 203.541 152.84C205.601 147.709 207.231 142.352 208.336 136.809C209.478 131.059 210.096 125.103 210.096 119.017C210.096 112.593 209.422 106.319 208.149 100.27L208.092 100.232ZM134.078 29.2517C133.816 29.1955 133.535 29.1581 133.254 29.1019C133.535 29.1393 133.797 29.1955 134.078 29.2517ZM131.156 28.8022C130.482 28.7086 129.789 28.6337 129.115 28.5587C129.808 28.6337 130.482 28.7273 131.156 28.8022ZM127.411 28.3715C126.268 28.2591 125.126 28.1655 123.965 28.1093C125.126 28.1655 126.268 28.2591 127.411 28.3715ZM113.87 28.128C112.634 28.2029 111.398 28.2966 110.18 28.4277C111.398 28.3153 112.634 28.2029 113.87 28.128ZM108.401 28.6149C107.671 28.7086 106.959 28.8022 106.229 28.8959C106.94 28.8022 107.671 28.6898 108.401 28.6149ZM104.019 29.233C103.738 29.2892 103.457 29.3453 103.176 29.3828C103.457 29.3266 103.738 29.2704 104.019 29.233ZM103.963 208.707C104.244 208.763 104.525 208.8 104.787 208.857C104.506 208.819 104.225 208.763 103.963 208.707ZM106.884 209.156C107.577 209.25 108.251 209.344 108.944 209.419C108.251 209.344 107.577 209.25 106.884 209.156ZM110.63 209.587C111.772 209.699 112.934 209.774 114.095 209.849C112.934 209.774 111.791 209.699 110.63 209.587Z" fill="#2F971E"/>
<path d="M30.6376 156.812C28.1842 151.081 26.2551 145.051 24.9442 138.796C24.401 136.211 23.9703 133.589 23.6332 130.93L0.953125 133.776C1.36515 137.054 1.88954 140.294 2.56377 143.496C4.19313 151.231 6.55291 158.685 9.60563 165.783C10.1675 167.094 10.7668 168.386 11.3848 169.679L32.0609 159.921C31.574 158.872 31.0871 157.842 30.6189 156.775L30.6376 156.812Z" fill="#F9FBF7"/>
<path d="M218.539 184.209L199.417 171.68C195.803 177.186 191.645 182.317 187 186.943C184.491 189.453 181.85 191.794 179.078 194.004L193.349 211.852C196.776 209.099 200.054 206.196 203.163 203.106C208.912 197.356 214.063 191.026 218.539 184.209Z" fill="#F9FBF7"/>
<path d="M83.2846 208.223C78.9022 206.463 74.6695 204.384 70.6429 202.043L59.125 221.801C64.1255 224.723 69.3507 227.289 74.7819 229.461C80.9435 231.933 87.3861 233.9 94.0159 235.323L98.8291 212.962C93.4728 211.819 88.2663 210.246 83.2846 208.242V208.223Z" fill="#F9FBF7"/>
<path d="M207.418 81.1672C209.871 86.898 211.8 92.9286 213.111 99.1838C213.654 101.768 214.085 104.39 214.422 107.05L237.102 104.203C236.69 100.926 236.166 97.6856 235.491 94.483C233.862 86.7482 231.502 79.2943 228.449 72.1963C227.888 70.8853 227.288 69.593 226.67 68.3008L205.994 78.0395C206.481 79.0883 206.987 80.1371 207.436 81.1859L207.418 81.1672Z" fill="#F9FBF7"/>
<path d="M154.771 29.7406C159.154 31.501 163.367 33.5799 167.413 35.9209L178.931 16.1625C173.93 13.2409 168.705 10.6751 163.274 8.5026C157.112 6.03046 150.67 4.06398 144.04 2.64062L139.227 25.0023C144.583 26.1447 149.789 27.7179 154.771 29.7218V29.7406Z" fill="#F9FBF7"/>
<path d="M237.082 104.186L214.402 107.033C214.065 104.392 213.634 101.77 213.091 99.1667C211.78 92.9114 209.87 86.8996 207.398 81.15C206.948 80.0825 206.443 79.0337 205.956 77.9849L226.632 68.2462C224.104 62.9086 221.219 57.777 217.979 52.9076C213.634 46.4089 208.653 40.3409 203.147 34.8348C197.341 29.029 190.917 23.8225 184.006 19.3089C182.339 18.2227 180.635 17.1739 178.912 16.1626L167.394 35.921C163.367 33.5612 159.135 31.4824 154.752 29.7406C149.771 27.7367 144.564 26.1635 139.208 25.0211L144.021 2.65943C143.441 2.52833 142.86 2.41596 142.261 2.28486C134.732 0.786591 126.96 0 119 0C110.591 0 102.388 0.880233 94.4846 2.52833C86.7498 4.1577 79.2959 6.51747 72.1978 9.57019C65.4369 12.4544 58.9943 15.9753 52.9451 20.0206C50.0984 21.9309 47.364 23.9723 44.6859 26.1073L58.9569 43.9555C56.1851 46.1654 53.5444 48.5252 51.0348 51.0161C46.334 55.7169 42.1388 60.9046 38.4868 66.4857L38.6179 66.2984L19.4962 53.7691L19.3277 54.0126C15.0763 60.5113 11.4618 67.4408 8.5214 74.7449C5.82452 81.4684 3.72694 88.4728 2.28486 95.7394C0.78659 103.268 0 111.04 0 119C0 124.019 0.318382 128.945 0.917689 133.795L23.5977 130.949C23.9348 133.589 24.3656 136.211 24.9087 138.815C26.2197 145.07 28.13 151.082 30.6021 156.831C31.0516 157.899 31.5573 158.929 32.0442 159.978L11.3681 169.735C13.8964 175.073 16.7806 180.204 20.0393 185.074C24.3843 191.572 29.3661 197.64 34.8722 203.147C40.678 208.952 47.1018 214.159 54.0126 218.691C55.6794 219.777 57.365 220.826 59.088 221.837L70.6059 202.079C74.6325 204.439 78.8651 206.518 83.2476 208.259C88.6788 210.432 94.3347 212.136 100.197 213.297C99.7285 213.204 99.2603 213.073 98.7734 212.979L93.9602 235.341C94.5408 235.472 95.1213 235.603 95.7206 235.715C103.249 237.213 111.022 238 118.981 238C127.39 238 135.593 237.12 143.497 235.472C151.232 233.842 158.685 231.483 165.802 228.43C172.563 225.546 178.987 222.025 185.036 217.979C187.883 216.069 190.617 214.028 193.295 211.893L179.024 194.045C181.796 191.835 184.456 189.475 186.946 186.984C191.591 182.339 195.749 177.226 199.363 171.72L218.485 184.25L218.654 184.006C222.905 177.507 226.538 170.559 229.46 163.274C232.157 156.569 234.254 149.546 235.678 142.279C237.176 134.751 237.963 126.978 237.963 119.019C237.963 114 237.644 109.074 237.045 104.223L237.082 104.186ZM204.682 75.3817C204.514 75.0445 204.345 74.7262 204.177 74.3891C204.345 74.7262 204.514 75.0445 204.682 75.3817ZM201.086 68.9391C200.393 67.8154 199.701 66.7104 198.97 65.6242C199.701 66.7104 200.393 67.8154 201.086 68.9391ZM202.978 72.1978C202.678 71.6547 202.36 71.0929 202.042 70.5497C202.36 71.0929 202.678 71.636 202.978 72.1978ZM65.6616 39.0486C64.5005 39.8165 63.358 40.6405 62.2343 41.4646C63.358 40.6405 64.5005 39.8352 65.6616 39.0486ZM23.3168 127.746L23.3543 128.196L23.3168 127.746ZM22.961 121.847C22.961 122.071 22.9797 122.315 22.9984 122.558C22.9984 122.315 22.9797 122.09 22.961 121.847ZM23.0921 124.75C23.0921 124.974 23.1108 125.18 23.1295 125.405C23.1295 125.18 23.0921 124.956 23.0921 124.75ZM33.3927 162.6C33.5612 162.937 33.7298 163.255 33.8983 163.592C33.7298 163.274 33.5612 162.937 33.3927 162.6ZM36.9698 169.042C37.6627 170.166 38.3557 171.271 39.0861 172.357C38.3557 171.271 37.6627 170.166 36.9698 169.042ZM35.0782 165.783C35.3966 166.345 35.715 166.888 36.0334 167.432C35.715 166.888 35.3966 166.327 35.0782 165.783ZM172.395 198.951C173.556 198.165 174.698 197.359 175.822 196.535C174.698 197.359 173.556 198.165 172.395 198.951ZM188.988 164.622C185.823 169.473 182.171 173.986 178.088 178.069C174.211 181.946 169.96 185.43 165.409 188.482C161.158 191.329 156.644 193.782 151.906 195.824C146.924 197.959 141.68 199.644 136.249 200.787C130.686 201.948 124.937 202.585 119.019 202.585C113.438 202.585 107.969 202.023 102.688 200.974C97.5935 199.963 92.6679 198.464 87.9484 196.573C82.8355 194.513 77.9662 191.966 73.3964 188.988C68.5458 185.823 64.0323 182.171 59.9495 178.088C56.0727 174.211 52.5892 169.96 49.5365 165.409C46.6898 161.158 44.2364 156.644 42.195 151.906C40.06 146.924 38.3744 141.68 37.232 136.249C36.0708 130.687 35.4341 124.937 35.4341 119.019C35.4341 113.438 35.9959 107.969 37.0447 102.688C38.056 97.5935 39.5543 92.6679 41.4459 87.9484C43.506 82.8355 46.053 77.9662 49.0308 73.3965C52.1959 68.5458 55.848 64.0323 59.9308 59.9495C63.8075 56.0727 68.0589 52.5892 72.6099 49.5365C76.8612 46.6898 81.3747 44.2364 86.113 42.195C91.0947 40.06 96.3387 38.3744 101.77 37.232C107.332 36.0708 113.082 35.4341 119 35.4341C124.6 35.4341 130.05 35.9959 135.331 37.0447C140.425 38.056 145.351 39.5543 150.052 41.4459C155.164 43.506 160.034 46.053 164.604 49.0308C169.454 52.2147 173.968 55.848 178.051 59.9308C181.927 63.8075 185.411 68.0589 188.463 72.6099C191.31 76.8612 193.764 81.3747 195.805 86.113C197.94 91.0948 199.626 96.3387 200.768 101.77C201.929 107.332 202.566 113.082 202.566 118.981C202.566 124.581 202.004 130.031 200.955 135.312C199.944 140.407 198.446 145.332 196.554 150.033C194.494 155.146 191.947 160.015 188.969 164.585L188.988 164.622ZM214.702 109.842L214.739 110.235L214.702 109.842ZM214.927 112.632C214.927 112.838 214.964 113.044 214.964 113.25C214.964 113.044 214.945 112.838 214.927 112.632ZM215.076 115.479C215.076 115.704 215.076 115.929 215.095 116.172C215.095 115.947 215.095 115.723 215.076 115.479Z" fill="#2F971E"/>
<path d="M51.0718 51.0181C53.5814 48.5085 56.2408 46.1674 58.9939 43.9575L44.7229 26.1094C41.2956 28.8437 38.0181 31.7653 34.9092 34.8555C29.1596 40.6051 24.0093 46.9353 19.5332 53.7524L38.6549 66.2817C42.2694 60.7756 46.4271 55.644 51.0718 51.0181Z" fill="#F9FBF7"/>
<path d="M194.196 103.156C193.147 98.1744 191.612 93.3612 189.645 88.7728C187.772 84.409 185.506 80.2701 182.903 76.3558C180.094 72.1607 176.891 68.2465 173.333 64.7068C169.587 60.9611 165.43 57.6088 160.972 54.6871C156.777 51.9528 152.301 49.6117 147.6 47.7202C143.255 45.9784 138.742 44.6113 134.06 43.6749C129.19 42.701 124.171 42.1953 119.039 42.1953C113.608 42.1953 108.327 42.7759 103.214 43.8434C98.2134 44.8922 93.419 46.4279 88.8305 48.3944C84.4668 50.2672 80.3091 52.5334 76.4136 55.1366C72.2185 57.9459 68.3043 61.1484 64.7646 64.7068C61.0189 68.4525 57.6665 72.6102 54.7449 77.0675C52.0106 81.2627 49.6508 85.7388 47.7592 90.4396C46.0175 94.7658 44.6503 99.2981 43.7139 103.98C42.74 108.831 42.2344 113.869 42.2344 119C42.2344 124.432 42.815 129.713 43.8825 134.826C44.9313 139.808 46.467 144.621 48.4335 149.209C50.3063 153.573 52.5724 157.712 55.1757 161.607C57.9849 165.803 61.1875 169.717 64.7459 173.275C68.4915 177.021 72.6492 180.373 77.1066 183.295C81.3017 186.048 85.7778 188.37 90.4786 190.28C94.8049 192.022 99.3371 193.389 104.019 194.326C107.671 195.056 111.436 195.524 115.256 195.712C111.492 195.524 107.802 195.056 104.207 194.345C99.5806 193.427 95.1045 192.078 90.8345 190.355C86.1898 188.483 81.7699 186.179 77.6122 183.463C73.2111 180.579 69.1096 177.264 65.4014 173.556C61.8804 170.035 58.7153 166.177 55.9435 162.038C53.359 158.18 51.1303 154.079 49.2762 149.771C47.3285 145.239 45.8115 140.482 44.7814 135.556C43.7139 130.5 43.1521 125.274 43.1521 119.918C43.1521 114.843 43.6577 109.88 44.6129 105.085C45.5306 100.459 46.879 95.9832 48.602 91.7131C50.4749 87.0685 52.7784 82.6486 55.4941 78.4909C58.3782 74.0897 61.6931 69.9882 65.4014 66.28C68.9223 62.7591 72.7803 59.594 76.9193 56.8222C80.7773 54.2376 84.8788 52.009 89.1864 50.1549C93.7186 48.2071 98.4756 46.6901 103.401 45.6601C108.458 44.5925 113.683 44.0307 119.039 44.0307C124.115 44.0307 129.078 44.5364 133.872 45.4915C138.498 46.4092 142.974 47.7576 147.244 49.4806C151.889 51.3535 156.309 53.6571 160.467 56.3727C164.868 59.2569 168.969 62.5718 172.677 66.28C176.386 69.9882 179.363 73.659 182.135 77.7979C184.72 81.656 186.948 85.7575 188.803 90.065C190.75 94.5973 192.267 99.3543 193.297 104.28C194.365 109.336 194.927 114.562 194.927 119.918C194.927 124.993 194.421 129.956 193.466 134.751C192.548 139.377 191.2 143.853 189.477 148.123C187.604 152.768 185.3 157.187 182.585 161.345C179.701 165.746 176.386 169.848 172.677 173.556C169.156 177.077 165.298 180.242 161.159 183.014C157.301 185.598 153.2 187.827 148.892 189.681C144.36 191.629 139.603 193.146 134.678 194.176C129.621 195.243 124.396 195.805 119.039 195.805C124.471 195.805 129.752 195.225 134.865 194.157C139.865 193.108 144.66 191.573 149.248 189.606C153.612 187.733 157.751 185.467 161.665 182.864C165.86 180.055 169.775 176.852 173.333 173.294C177.079 169.548 180.431 165.39 183.353 160.933C186.087 156.738 188.428 152.262 190.338 147.561C192.08 143.235 193.447 138.703 194.384 134.02C195.357 129.151 195.863 124.132 195.863 119C195.863 113.569 195.301 108.288 194.215 103.175L194.196 103.156Z" fill="#2F971E"/>
<path d="M47.7946 72.5336C44.7045 77.2718 42.1387 82.2348 40.0973 87.3664C38.1495 92.2358 36.67 97.2737 35.6587 102.368C34.5724 107.855 34.0293 113.418 34.0293 118.98C34.0293 124.861 34.6473 130.723 35.8647 136.491C37.0071 141.922 38.6739 147.26 40.8839 152.429C42.9065 157.186 45.3787 161.793 48.319 166.194C51.3718 170.764 54.8927 175.09 58.9193 179.117C63.1706 183.368 67.7591 187.057 72.591 190.223C77.3293 193.313 82.2923 195.879 87.4239 197.92C92.2932 199.868 97.3312 201.347 102.425 202.359C107.913 203.445 113.475 204.007 119.037 203.988C124.918 203.988 130.78 203.37 136.548 202.153C141.98 201.01 147.317 199.343 152.486 197.152C157.243 195.129 161.85 192.657 166.252 189.717C170.821 186.664 175.147 183.143 179.174 179.117C183.425 174.865 187.115 170.277 190.28 165.426C193.37 160.707 195.936 155.725 197.977 150.593C199.925 145.705 201.405 140.686 202.416 135.592C203.502 130.105 204.045 124.542 204.045 118.961C204.045 113.099 203.427 107.218 202.21 101.45C201.068 96.0189 199.401 90.6813 197.21 85.5123C195.187 80.7553 192.715 76.1481 189.774 71.747C186.722 67.1772 183.201 62.851 179.174 58.8244C174.923 54.573 170.334 50.8836 165.484 47.7185C160.764 44.6283 155.782 42.0625 150.651 40.0211C145.763 38.0734 140.743 36.5938 135.649 35.5825C130.162 34.4962 124.6 33.9531 119.019 33.9531C113.157 33.9531 107.276 34.5712 101.508 35.7885C96.0764 36.9309 90.7388 38.5978 85.5697 40.8077C80.8127 42.8304 76.2056 45.3025 71.8044 48.2429C67.2347 51.2769 62.9084 54.8165 58.8818 58.8431C54.6305 63.0945 50.941 67.6829 47.7759 72.5148L47.7946 72.5336ZM88.2854 47.1379C93.0424 45.1152 97.9305 43.5795 102.931 42.5307C108.231 41.4257 113.625 40.8452 119.037 40.8452C124.15 40.8452 129.282 41.3508 134.32 42.3434C139.002 43.2611 143.628 44.6283 148.104 46.4262C152.823 48.2991 157.393 50.6588 161.738 53.5055C166.195 56.4084 170.409 59.7983 174.305 63.7125C177.994 67.402 181.234 71.3911 184.043 75.5863C186.74 79.6316 189.006 83.8642 190.879 88.2467C192.902 93.0037 194.438 97.8918 195.486 102.892C196.591 108.192 197.172 113.586 197.172 118.999C197.172 124.111 196.666 129.243 195.674 134.281C194.756 138.963 193.389 143.589 191.61 148.065C189.718 152.785 187.377 157.354 184.53 161.699C181.628 166.157 178.238 170.371 174.323 174.266C170.634 177.956 166.645 181.214 162.45 184.005C158.404 186.702 154.172 188.968 149.808 190.841C145.051 192.863 140.163 194.399 135.162 195.448C129.862 196.553 124.469 197.133 119.056 197.133C113.943 197.133 108.83 196.628 103.774 195.635C99.0916 194.699 94.4657 193.35 89.9896 191.552C85.2701 189.661 80.7004 187.32 76.3554 184.473C71.898 181.57 67.6842 178.162 63.7699 174.266C60.0804 170.577 56.8217 166.587 54.0312 162.392C51.3343 158.347 49.0682 154.114 47.1953 149.751C45.1727 144.994 43.6369 140.105 42.5882 135.105C41.4832 129.805 40.9026 124.411 40.9026 118.999C40.9026 113.886 41.4083 108.773 42.4009 103.716C43.3186 99.0342 44.6857 94.4083 46.4837 89.9322C48.3565 85.2127 50.7163 80.6429 53.563 76.298C56.4659 71.8406 59.8557 67.6267 63.7699 63.7312C67.4594 60.0417 71.4486 56.783 75.6437 53.9925C79.689 51.2956 83.9216 49.0295 88.3041 47.1566L88.2854 47.1379Z" fill="#207112"/>
<path d="M182.881 76.3545L188.499 72.6088C185.447 68.0391 181.963 63.7877 178.086 59.9297L173.311 64.7054C176.869 68.2638 180.071 72.178 182.881 76.3545Z" fill="#207112"/>
<path d="M189.626 88.772L195.825 86.1125C193.784 81.3743 191.33 76.8607 188.484 72.6094L182.865 76.355C185.468 80.2505 187.735 84.4082 189.607 88.772H189.626Z" fill="#E6EDE6"/>
<path d="M194.192 103.156L200.803 101.77C199.66 96.339 197.993 91.095 195.84 86.1133L189.641 88.7727C191.607 93.3612 193.143 98.1743 194.192 103.156Z" fill="#207112"/>
<path d="M173.311 173.275L178.086 178.051C182.169 173.968 185.802 169.454 188.986 164.604L183.33 160.914C180.409 165.371 177.056 169.51 173.311 173.275Z" fill="#E6EDE6"/>
<path d="M47.7591 90.4393L41.4851 87.9297C39.5936 92.6492 38.0953 97.5748 37.084 102.669L43.7138 103.999C44.6502 99.3165 46.0174 94.803 47.7591 90.458V90.4393Z" fill="#E6EDE6"/>
<path d="M43.8611 134.828L37.25 136.214C38.3924 141.645 40.0593 146.889 42.213 151.871L48.4121 149.212C46.4456 144.623 44.9099 139.81 43.8611 134.828Z" fill="#207112"/>
<path d="M43.7112 103.978L37.0813 102.648C36.0326 107.93 35.4707 113.399 35.4707 118.98H42.2129C42.2129 113.848 42.7373 108.829 43.6925 103.959L43.7112 103.978Z" fill="#207112"/>
<path d="M42.2129 118.98H35.4707C35.4707 124.88 36.0887 130.648 37.2686 136.211L43.8797 134.825C42.8122 129.712 42.2316 124.43 42.2316 118.999L42.2129 118.98Z" fill="#E6EDE6"/>
<path d="M48.4335 149.211L42.2344 151.87C44.2758 156.609 46.7292 161.122 49.5759 165.374L55.1944 161.628C52.5912 157.732 50.325 153.575 48.4522 149.23L48.4335 149.211Z" fill="#E6EDE6"/>
<path d="M64.7425 173.273L59.9668 178.049C64.0496 182.132 68.5631 185.765 73.4138 188.949L77.1033 183.293C72.6459 180.371 68.5069 177.019 64.7425 173.273Z" fill="#E6EDE6"/>
<path d="M55.1751 161.609L49.5566 165.354C52.6094 169.924 56.1116 174.175 59.9696 178.033L64.7453 173.258C61.187 169.699 57.9844 165.785 55.1751 161.59V161.609Z" fill="#207112"/>
<path d="M77.1036 183.296L73.4141 188.952C77.9838 191.93 82.8532 194.496 87.966 196.537L90.4756 190.263C85.7748 188.371 81.2987 186.03 77.1036 183.277V183.296Z" fill="#207112"/>
<path d="M54.7253 77.0684L49.0694 73.3789C46.0916 77.9486 43.5445 82.818 41.4844 87.9308L47.7584 90.4404C49.6499 85.7396 51.991 81.2635 54.7441 77.0684H54.7253Z" fill="#207112"/>
<path d="M119.017 42.175V35.4141C113.118 35.4141 107.349 36.0321 101.787 37.212L103.173 43.8231C108.286 42.7556 113.567 42.175 118.998 42.175H119.017Z" fill="#E6EDE6"/>
<path d="M88.8071 48.3944L86.1477 42.1953C81.4094 44.2367 76.8959 46.6901 72.6445 49.5368L76.3902 55.1553C80.2857 52.5521 84.4434 50.286 88.8071 48.4131V48.3944Z" fill="#E6EDE6"/>
<path d="M103.193 43.826L101.807 37.2148C96.3761 38.3573 91.1509 40.0241 86.1504 42.1779L88.8098 48.3769C93.3983 46.4105 98.2115 44.8747 103.193 43.826Z" fill="#207112"/>
<path d="M64.742 64.7054L59.9663 59.9297C55.8835 64.0125 52.2502 68.526 49.0664 73.3767L54.7224 77.0661C57.644 72.6088 60.9964 68.4698 64.742 64.7054Z" fill="#E6EDE6"/>
<path d="M76.4091 55.1341L72.6635 49.5156C68.0938 52.5683 63.8424 56.0518 59.9844 59.9286L64.7601 64.7043C68.3185 61.1459 72.214 57.9434 76.4091 55.1341Z" fill="#207112"/>
<path d="M194.193 103.155C195.261 108.268 195.841 113.55 195.841 118.981H202.602C202.602 113.081 201.984 107.313 200.804 101.77L194.193 103.155Z" fill="#E6EDE6"/>
<path d="M194.344 134.001L200.974 135.331C202.022 130.05 202.584 124.581 202.584 119H195.823C195.823 124.132 195.299 129.151 194.344 134.02V134.001Z" fill="#207112"/>
<path d="M173.31 64.7069L178.086 59.9312C174.003 55.8484 169.489 52.2151 164.639 49.0312L160.949 54.6872C165.407 57.6088 169.546 60.9612 173.31 64.7069Z" fill="#E6EDE6"/>
<path d="M190.316 147.541L196.59 150.05C198.482 145.331 199.98 140.424 200.992 135.33L194.362 134C193.425 138.682 192.058 143.196 190.316 147.541Z" fill="#E6EDE6"/>
<path d="M90.4784 190.262L87.9688 196.536C92.6883 198.427 97.6139 199.926 102.708 200.937L104.038 194.307C99.3556 193.371 94.8421 192.003 90.4971 190.262H90.4784Z" fill="#E6EDE6"/>
<path d="M160.952 54.6863L164.642 49.0303C160.072 46.0525 155.203 43.5054 150.09 41.4453L147.58 47.7193C152.281 49.6109 156.757 51.9519 160.952 54.6863Z" fill="#207112"/>
<path d="M147.58 47.6986L150.089 41.4246C145.37 39.533 140.463 38.0348 135.369 37.0234L134.039 43.6533C138.721 44.5897 143.235 45.9569 147.58 47.6986Z" fill="#E6EDE6"/>
<path d="M183.333 160.915L188.989 164.605C191.967 160.035 194.514 155.165 196.574 150.053L190.3 147.543C188.409 152.244 186.068 156.72 183.314 160.915H183.333Z" fill="#207112"/>
<path d="M119.021 195.789V202.55C124.921 202.55 130.689 201.932 136.252 200.752L134.866 194.141C129.753 195.208 124.471 195.789 119.04 195.789H119.021Z" fill="#E6EDE6"/>
<path d="M134.039 43.6741L135.368 37.0442C130.087 35.9954 124.618 35.4336 119.037 35.4336V42.1945C124.169 42.1945 129.188 42.7189 134.057 43.6741H134.039Z" fill="#207112"/>
<path d="M104.017 194.305L102.688 200.935C107.969 201.983 113.438 202.545 119.019 202.545V195.784C113.887 195.784 108.868 195.26 103.998 194.305H104.017Z" fill="#207112"/>
<path d="M134.861 194.137L136.247 200.748C141.678 199.606 146.904 197.939 151.904 195.785L149.245 189.586C144.656 191.552 139.843 193.088 134.861 194.137Z" fill="#207112"/>
<path d="M149.246 189.589L151.906 195.788C156.644 193.747 161.157 191.293 165.409 188.447L161.663 182.828C157.767 185.431 153.61 187.697 149.246 189.57V189.589Z" fill="#E6EDE6"/>
<path d="M161.648 182.844L165.393 188.462C169.963 185.409 174.214 181.926 178.072 178.049L173.297 173.273C169.738 176.832 165.824 180.034 161.629 182.844H161.648Z" fill="#207112"/>
<path d="M24.123 134.113C24.1605 134.375 24.198 134.638 24.2354 134.881C24.198 134.619 24.1605 134.357 24.123 134.113Z" fill="#2F971E"/>
<path d="M186.984 186.943C191.629 182.299 195.787 177.186 199.401 171.68C195.787 177.186 191.629 182.317 186.984 186.943Z" fill="#2F971E"/>
<path d="M90.9629 210.922C93.5287 211.708 96.1507 212.383 98.8101 212.945C96.1507 212.383 93.5474 211.708 90.9629 210.922Z" fill="#2F971E"/>
<path d="M87.1406 209.68C88.1707 210.054 89.2195 210.373 90.287 210.71C89.2382 210.373 88.1894 210.036 87.1406 209.68Z" fill="#2F971E"/>
<path d="M213.822 103.082L213.878 103.457L213.822 103.082Z" fill="#2F971E"/>
<path d="M44.462 58.3398C42.4019 60.8682 40.4729 63.5276 38.6562 66.2619C40.4542 63.5276 42.4019 60.8682 44.462 58.3398Z" fill="#F9FAF9"/>
<path d="M47.665 54.6133C46.6536 55.737 45.6798 56.8794 44.7246 58.0406C45.6798 56.8794 46.6536 55.737 47.665 54.6133Z" fill="#F9FAF9"/>
<path d="M12.9775 168.967C12.3782 167.693 11.7789 166.42 11.2171 165.128C8.22053 158.123 5.87949 150.782 4.28758 143.159C3.63208 140.013 3.10769 136.81 2.69567 133.57L0.972656 133.795C1.38468 137.073 1.90908 140.313 2.5833 143.515C4.21266 151.25 6.57244 158.704 9.62516 165.802C10.187 167.113 10.7863 168.405 11.4044 169.697L12.9775 168.967Z" fill="url(#paint0_linear_4081_817)"/>
<path d="M201.929 201.893C198.877 204.945 195.637 207.811 192.266 210.508L193.352 211.856C196.779 209.103 200.057 206.2 203.166 203.11C208.915 197.36 214.065 191.03 218.542 184.213L217.099 183.258C212.68 189.981 207.604 196.218 201.948 201.893H201.929Z" fill="url(#paint1_linear_4081_817)"/>
<path d="M75.4187 227.848C70.0624 225.713 64.9308 223.185 60.0052 220.301L59.125 221.799C64.1255 224.721 69.3507 227.286 74.7819 229.459C80.9435 231.931 87.3861 233.898 94.0159 235.321L94.3718 233.635C87.8356 232.231 81.5054 230.302 75.4187 227.867V227.848Z" fill="url(#paint2_linear_4081_817)"/>
<path d="M226.839 72.851C229.835 79.8554 232.176 87.1969 233.768 94.8193C234.424 97.9657 234.948 101.168 235.36 104.408L237.083 104.184C236.671 100.906 236.147 97.666 235.472 94.4635C233.843 86.7287 231.483 79.2748 228.43 72.1767C227.869 70.8658 227.269 69.5735 226.651 68.2812L225.078 69.0117C225.677 70.2852 226.277 71.5587 226.839 72.851Z" fill="url(#paint3_linear_4081_817)"/>
<path d="M162.637 10.1328C167.993 12.2865 173.144 14.8149 178.05 17.6803L178.912 16.182C173.912 13.2604 168.686 10.6946 163.255 8.52213C157.093 6.04999 150.651 4.08351 144.021 2.66016L143.646 4.34571C150.183 5.75034 156.513 7.67936 162.6 10.114L162.637 10.1328Z" fill="url(#paint4_linear_4081_817)"/>
<path d="M2.69458 133.57C2.09528 128.795 1.77689 123.925 1.77689 118.981C1.77689 111.134 2.56349 103.474 4.0243 96.0574C5.44765 88.9031 7.50777 81.9924 10.1672 75.3813C13.0514 68.1896 16.6285 61.3537 20.8049 54.9486L20.9735 54.7052L19.5314 53.75L19.3628 53.9935C15.1115 60.4922 11.4969 67.4217 8.55656 74.7258C5.85968 81.4492 3.7621 88.4537 2.32002 95.7203C0.821748 103.249 0.0351562 111.021 0.0351562 118.981C0.0351562 124 0.353538 128.926 0.952846 133.776L2.67585 133.552L2.69458 133.57Z" fill="#2F971E"/>
<path d="M60.0044 220.299C58.3001 219.307 56.6333 218.277 54.9852 217.209C48.1681 212.752 41.8566 207.62 36.1257 201.889C30.6945 196.458 25.7877 190.484 21.5176 184.079C18.3151 179.284 15.4684 174.228 12.9775 168.965L11.4043 169.695C13.9326 175.033 16.8168 180.164 20.0755 185.034C24.4205 191.533 29.4023 197.601 34.9084 203.107C40.7142 208.912 47.138 214.119 54.0488 218.651C55.7156 219.737 57.4011 220.786 59.1242 221.798L60.0044 220.299Z" fill="#2F971E"/>
<path d="M192.266 210.508C189.644 212.605 186.929 214.628 184.138 216.501C178.182 220.49 171.834 223.936 165.185 226.801C158.181 229.798 150.839 232.139 143.217 233.731C135.426 235.36 127.335 236.222 119.057 236.222C111.21 236.222 103.55 235.435 96.1335 233.974C95.553 233.862 94.9724 233.731 94.4105 233.619L94.0547 235.304C94.6353 235.435 95.2158 235.566 95.8152 235.679C103.344 237.177 111.116 237.964 119.076 237.964C127.485 237.964 135.688 237.083 143.591 235.435C151.326 233.806 158.78 231.446 165.897 228.393C172.658 225.509 179.081 221.988 185.131 217.943C187.977 216.033 190.712 213.991 193.39 211.856L192.304 210.508H192.266Z" fill="#2F971E"/>
<path d="M237.083 104.188L235.36 104.412C235.959 109.188 236.277 114.057 236.277 119.002C236.277 126.849 235.491 134.509 234.03 141.925C232.607 149.079 230.547 155.99 227.887 162.601C225.003 169.793 221.426 176.629 217.249 183.034L217.1 183.277L218.542 184.233L218.71 183.989C222.962 177.49 226.595 170.542 229.517 163.257C232.213 156.552 234.311 149.529 235.734 142.262C237.233 134.733 238.019 126.961 238.019 119.002C238.019 113.982 237.701 109.057 237.102 104.206L237.083 104.188Z" fill="#2F971E"/>
<path d="M178.053 17.6827C179.757 18.6753 181.424 19.7053 183.072 20.7728C189.889 25.2302 196.201 30.3618 201.931 36.0926C207.363 41.5239 212.251 47.4982 216.54 53.9033C219.742 58.6978 222.589 63.7544 225.08 69.0171L226.653 68.2867C224.125 62.9491 221.24 57.8175 218 52.9482C213.655 46.4494 208.674 40.3814 203.167 34.8753C197.362 29.0695 190.938 23.863 184.027 19.3495C182.36 18.2632 180.656 17.2145 178.933 16.2031L178.071 17.7014L178.053 17.6827Z" fill="#2F971E"/>
<path d="M45.7905 27.4527C48.4125 25.3551 51.1281 23.3324 53.9186 21.4596C59.8742 17.4705 66.2232 14.0244 72.8717 11.159C79.8761 8.16246 87.2177 5.82142 94.8401 4.22951C102.631 2.60014 110.722 1.73863 119 1.73863C126.847 1.73863 134.507 2.52522 141.923 3.98604C142.504 4.09841 143.084 4.22951 143.646 4.36061L144.021 2.67505C143.44 2.54395 142.86 2.43158 142.26 2.30048C134.732 0.802216 126.959 0.015625 119 0.015625C110.591 0.015625 102.388 0.895858 94.4843 2.54395C86.7494 4.17332 79.2956 6.5331 72.1975 9.58582C65.4366 12.47 58.994 15.9909 52.9448 20.0362C50.098 21.9465 47.3637 23.9879 44.6855 26.123L45.7718 27.4714L45.7905 27.4527Z" fill="#2F971E"/>
<path d="M36.1257 36.0885C39.1785 33.0358 42.4185 30.1703 45.7896 27.4734L44.7033 26.125C41.276 28.8593 37.9986 31.781 34.8897 34.8711C29.1401 40.6207 23.9897 46.9509 19.5137 53.7681L20.9558 54.7232C25.3756 47.9997 30.451 41.7632 36.107 36.1072L36.1257 36.0885Z" fill="url(#paint5_linear_4081_817)"/>
<path d="M139.471 219.253C139.471 216.575 141.643 214.402 144.321 214.402C146.999 214.402 149.172 216.575 149.172 219.253C149.172 221.931 146.999 224.104 144.321 224.104C141.643 224.104 139.471 221.931 139.471 219.253Z" fill="#F9FAF9"/>
<path d="M90.291 18.71C90.291 16.0319 92.4635 13.8594 95.1417 13.8594C97.8198 13.8594 99.9923 16.0319 99.9923 18.71C99.9923 21.3882 97.8198 23.5607 95.1417 23.5607C92.4635 23.5607 90.291 21.3882 90.291 18.71Z" fill="#F9FAF9"/>
<path d="M12.6953 100.796C12.6953 98.1178 14.8678 95.9453 17.546 95.9453C20.2241 95.9453 22.3966 98.1178 22.3966 100.796C22.3966 103.474 20.2241 105.647 17.546 105.647C14.8678 105.647 12.6953 103.474 12.6953 100.796Z" fill="#F9FAF9"/>
<path d="M39.7031 190.507C39.7031 187.829 41.8756 185.656 44.5538 185.656C47.2319 185.656 49.4044 187.829 49.4044 190.507C49.4044 193.185 47.2319 195.358 44.5538 195.358C41.8756 195.358 39.7031 193.185 39.7031 190.507Z" fill="#F9FAF9"/>
<path d="M214.271 142.71C214.271 140.032 216.444 137.859 219.122 137.859C221.8 137.859 223.973 140.032 223.973 142.71C223.973 145.388 221.8 147.561 219.122 147.561C216.444 147.561 214.271 145.388 214.271 142.71Z" fill="#F9FAF9"/>
<path d="M190.375 50.2295C190.375 47.5514 192.547 45.3789 195.226 45.3789C197.904 45.3789 200.076 47.5514 200.076 50.2295C200.076 52.9077 197.904 55.0802 195.226 55.0802C192.547 55.0802 190.375 52.9077 190.375 50.2295Z" fill="#F9FAF9"/>
<path d="M183.369 160.933C186.159 156.663 188.463 152.168 190.317 147.542C192.077 143.141 193.407 138.59 194.325 134.002C195.299 129.057 195.804 124.02 195.804 118.982C195.804 113.681 195.242 108.381 194.156 103.156C193.126 98.2493 191.628 93.4361 189.624 88.7728C187.789 84.484 185.56 80.3075 182.919 76.3371C182.301 75.4194 181.646 74.5017 180.99 73.6028C180.784 73.3219 180.578 73.0409 180.372 72.7787C179.885 72.142 179.398 71.4865 178.893 70.8684C178.668 70.5875 178.443 70.2879 178.2 70.0069C177.544 69.2203 176.889 68.4525 176.196 67.6846L175.971 67.4224C175.128 66.486 174.267 65.5683 173.368 64.6881C172.413 63.7329 171.457 62.8152 170.465 61.935L170.221 61.7103C169.397 60.9799 168.573 60.2682 167.73 59.5752C167.431 59.3318 167.131 59.0883 166.832 58.8448C166.157 58.3204 165.483 57.796 164.809 57.2904C164.509 57.0656 164.228 56.8596 163.929 56.6349C162.973 55.9419 162 55.2677 161.026 54.6309C156.756 51.8404 152.261 49.5368 147.635 47.6827C143.234 45.9223 138.702 44.5925 134.094 43.6749C129.15 42.701 124.112 42.1953 119.074 42.1953C113.774 42.1953 108.474 42.7572 103.249 43.8434C98.3419 44.8735 93.5287 46.3717 88.8653 48.3757C84.5765 50.2111 80.4001 52.4397 76.4297 55.0804C72.3095 57.8335 68.3952 61.0173 64.7619 64.6506C60.9226 68.4899 57.589 72.6289 54.7423 77.0113C51.9517 81.2814 49.6294 85.7762 47.7941 90.4021C46.0336 94.8033 44.7039 99.3543 43.7862 103.943C42.8123 108.887 42.3066 113.925 42.3066 118.944C42.3066 124.244 42.8685 129.544 43.9547 134.77C44.9848 139.676 46.4831 144.49 48.487 149.153C50.3224 153.442 52.5511 157.618 55.1918 161.589C55.8098 162.506 56.4466 163.424 57.1208 164.323C57.3268 164.604 57.5328 164.885 57.7388 165.147C58.2257 165.784 58.7314 166.439 59.2371 167.057C59.4618 167.338 59.6866 167.619 59.93 167.919C60.5855 168.705 61.241 169.473 61.934 170.241C62.8517 171.252 63.7881 172.264 64.7807 173.256C68.62 177.096 72.759 180.429 77.1414 183.276C81.4115 186.067 85.9063 188.37 90.5322 190.224C94.9333 191.985 99.4656 193.314 104.073 194.232C109.017 195.206 114.055 195.712 119.093 195.712C124.393 195.712 129.693 195.15 134.918 194.064C139.825 193.034 144.638 191.535 149.302 189.531C153.609 187.696 157.767 185.467 161.737 182.827C165.858 180.074 169.772 176.89 173.405 173.256C177.244 169.417 180.578 165.278 183.425 160.896L183.369 160.933ZM181.552 74.4081C181.421 74.2208 181.29 74.0335 181.159 73.8275C181.29 74.0148 181.421 74.2021 181.552 74.4081ZM180.072 72.4042C179.717 71.936 179.361 71.4865 179.005 71.0183C179.361 71.4677 179.717 71.936 180.072 72.4042ZM178.106 69.9133C177.488 69.1642 176.851 68.4338 176.196 67.7033C176.851 68.4338 177.488 69.1642 178.106 69.9133ZM170.165 61.6915C169.379 60.9986 168.592 60.3244 167.787 59.6689C168.592 60.3244 169.379 60.9986 170.165 61.6915ZM166.607 58.7137C166.12 58.3392 165.633 57.9646 165.146 57.59C165.633 57.9646 166.12 58.3392 166.607 58.7137ZM163.629 56.4663C163.442 56.3352 163.236 56.2041 163.048 56.0543C163.236 56.1854 163.442 56.3165 163.629 56.4663ZM56.5027 163.536C56.6338 163.724 56.7649 163.93 56.9148 164.117C56.7837 163.93 56.6338 163.724 56.5027 163.536ZM57.9823 165.54C58.3381 166.009 58.694 166.458 59.0498 166.926C58.6752 166.477 58.3194 166.009 57.9823 165.54ZM59.9488 168.031C60.5668 168.78 61.2036 169.529 61.859 170.26C61.2036 169.529 60.5668 168.78 59.9488 168.031Z" fill="#207112"/>
<path d="M192.584 103.493C191.554 98.6047 190.056 93.9038 188.127 89.409C186.292 85.139 184.082 81.0749 181.516 77.2731C178.763 73.1716 175.635 69.351 172.152 65.8675C168.481 62.1967 164.417 58.9193 160.053 56.0726C155.952 53.3944 151.569 51.0908 146.962 49.2367C142.711 47.5324 138.291 46.2027 133.721 45.285C132.654 45.079 131.586 44.8917 130.5 44.7232C130.163 44.667 129.826 44.6295 129.489 44.5734C128.702 44.461 127.915 44.3673 127.129 44.2737C126.773 44.2362 126.417 44.1988 126.061 44.1613C125.069 44.0677 124.076 43.9928 123.065 43.9366H122.709C121.492 43.8429 120.255 43.8242 119.001 43.8242C117.69 43.8242 116.379 43.8617 115.086 43.9179H114.768C113.701 43.9928 112.633 44.0864 111.566 44.1988C111.191 44.2362 110.816 44.2737 110.442 44.3299C109.618 44.4235 108.794 44.5359 107.97 44.667C107.614 44.7232 107.258 44.7606 106.902 44.8168C105.76 45.0041 104.636 45.2101 103.512 45.4349C98.6242 46.4649 93.9234 47.9632 89.4286 49.8922C85.1585 51.7276 81.0945 53.9375 77.2926 56.5033C73.1911 59.2564 69.3705 62.384 65.887 65.8675C62.2163 69.5383 58.9388 73.6023 56.0921 77.966C53.4139 82.0675 51.1104 86.45 49.2562 91.0571C47.552 95.3085 46.2223 99.7284 45.3046 104.298C44.3494 109.055 43.8438 113.962 43.8438 119C43.8438 124.319 44.4056 129.488 45.4544 134.488C46.4845 139.376 47.9827 144.077 49.9117 148.572C51.7471 152.842 53.9571 156.906 56.5229 160.708C59.2759 164.809 62.4036 168.63 65.887 172.113C69.5578 175.784 73.6218 179.062 77.9855 181.908C82.0871 184.587 86.4695 186.89 91.0767 188.726C95.328 190.43 99.7479 191.778 104.318 192.677C105.385 192.883 106.453 193.071 107.539 193.239C107.876 193.295 108.213 193.333 108.55 193.389C109.337 193.501 110.123 193.595 110.91 193.689C111.266 193.726 111.622 193.763 111.978 193.801C112.97 193.895 113.963 193.969 114.974 194.026C116.304 194.101 117.652 194.138 119.019 194.138C124.338 194.138 129.507 193.576 134.508 192.527C139.396 191.497 144.097 189.999 148.591 188.07C152.862 186.235 156.926 184.025 160.727 181.459C164.829 178.706 168.65 175.578 172.133 172.095C175.804 168.424 179.081 164.36 181.928 159.996C184.606 155.895 186.91 151.512 188.745 146.905C190.449 142.654 191.798 138.234 192.697 133.664C193.652 128.907 194.158 124 194.158 118.962C194.158 113.662 193.596 108.475 192.547 103.474L192.584 103.493ZM131.455 44.873C131.23 44.8355 131.006 44.7794 130.781 44.7606C131.006 44.7981 131.23 44.8355 131.455 44.873ZM129.039 44.4984C128.477 44.4235 127.915 44.3486 127.354 44.2924C127.915 44.3673 128.477 44.4235 129.039 44.4984ZM125.949 44.1426C125.012 44.049 124.057 43.974 123.102 43.9366C124.057 43.9928 125.012 44.0677 125.949 44.1426ZM110.236 44.3486C109.636 44.4235 109.037 44.4984 108.438 44.5734C109.037 44.4797 109.618 44.4048 110.236 44.3486ZM106.621 44.8543C106.396 44.8917 106.172 44.9479 105.928 44.9854C106.153 44.9479 106.396 44.8917 106.621 44.8543ZM106.584 193.071C106.809 193.108 107.033 193.145 107.277 193.183C107.052 193.145 106.827 193.108 106.584 193.071ZM109 193.445C109.562 193.52 110.123 193.595 110.704 193.651C110.142 193.576 109.562 193.52 109 193.445ZM112.09 193.801C113.045 193.895 113.981 193.969 114.937 194.026C113.981 193.969 113.026 193.895 112.09 193.801Z" fill="#2F971E"/>
<defs>
<linearGradient id="paint0_linear_4081_817" x1="-0.991031" y1="150.254" x2="6.0302" y2="148.175" gradientUnits="userSpaceOnUse">
<stop stop-color="#B3B0B1"/>
<stop offset="0.2" stop-color="#C8C6C6"/>
<stop offset="0.53" stop-color="#E6E5E5"/>
<stop offset="0.81" stop-color="#F8F8F8"/>
<stop offset="1" stop-color="white"/>
</linearGradient>
<linearGradient id="paint1_linear_4081_817" x1="212.579" y1="201.73" x2="202.488" y2="191.639" gradientUnits="userSpaceOnUse">
<stop stop-color="#B3B0B1"/>
<stop offset="0.2" stop-color="#C8C6C6"/>
<stop offset="0.53" stop-color="#E6E5E5"/>
<stop offset="0.81" stop-color="#F8F8F8"/>
<stop offset="1" stop-color="white"/>
</linearGradient>
<linearGradient id="paint2_linear_4081_817" x1="77.3958" y1="232.473" x2="80.0737" y2="225.537" gradientUnits="userSpaceOnUse">
<stop stop-color="#B3B0B1"/>
<stop offset="0.2" stop-color="#C8C6C6"/>
<stop offset="0.53" stop-color="#E6E5E5"/>
<stop offset="0.81" stop-color="#F8F8F8"/>
<stop offset="1" stop-color="white"/>
</linearGradient>
<linearGradient id="paint3_linear_4081_817" x1="237.896" y1="82.82" x2="225.124" y2="85.7688" gradientUnits="userSpaceOnUse">
<stop stop-color="#B3B0B1"/>
<stop offset="0.2" stop-color="#C8C6C6"/>
<stop offset="0.53" stop-color="#E6E5E5"/>
<stop offset="0.81" stop-color="#F8F8F8"/>
<stop offset="1" stop-color="white"/>
</linearGradient>
<linearGradient id="paint4_linear_4081_817" x1="162.86" y1="0.459874" x2="157.927" y2="12.4039" gradientUnits="userSpaceOnUse">
<stop stop-color="#B3B0B1"/>
<stop offset="0.2" stop-color="#C8C6C6"/>
<stop offset="0.53" stop-color="#E6E5E5"/>
<stop offset="0.81" stop-color="#F8F8F8"/>
<stop offset="1" stop-color="white"/>
</linearGradient>
<linearGradient id="paint5_linear_4081_817" x1="22.6379" y1="32.7766" x2="34.3776" y2="43.6515" gradientUnits="userSpaceOnUse">
<stop stop-color="#B3B0B1"/>
<stop offset="0.2" stop-color="#C8C6C6"/>
<stop offset="0.53" stop-color="#E6E5E5"/>
<stop offset="0.81" stop-color="#F8F8F8"/>
<stop offset="1" stop-color="white"/>
</linearGradient>
</defs>
</svg>
