<svg width="14" height="14" viewBox="0 0 14 14" fill="none" xmlns="http://www.w3.org/2000/svg">
<path d="M9.07173 6.35258L8.76707 6.04906L7.27116 4.55771C7.12117 4.40785 6.87811 4.40785 6.72813 4.55771L5.23593 6.04535L4.92954 6.35088C4.44366 6.83918 4.44562 7.62889 4.93392 8.11478C5.3462 8.525 5.98728 8.59585 6.47917 8.28552L6.30969 9.20011C6.27954 9.36195 6.38631 9.51762 6.54816 9.54774C6.56621 9.5511 6.58455 9.55278 6.60292 9.55278H7.39802C7.56266 9.55288 7.6962 9.4195 7.69629 9.25487C7.69629 9.2365 7.69461 9.21816 7.69125 9.20011L7.51978 8.28038C8.01307 8.59292 8.65701 8.52233 9.07086 8.11033C9.55648 7.62712 9.55844 6.84176 9.07523 6.35614C9.0741 6.35495 9.07292 6.35377 9.07173 6.35258Z" fill="#191919"/>
<path d="M2.00151 6.82939C2.04214 5.62195 2.52003 4.47035 3.34623 3.58892L3.34365 3.58662L1.92891 2.17188C0.727949 3.42972 0.0400406 5.09075 0 6.82939H2.00066H2.00151Z" fill="#191919"/>
<path d="M3.58827 3.34623C4.46966 2.5201 5.62111 2.04221 6.82846 2.00151C6.82829 2.00047 6.82829 1.9994 6.82846 1.99836V0C5.09003 0.0400406 3.42924 0.727854 2.17151 1.92862L3.58597 3.34365L3.58827 3.34623Z" fill="#CF8D2E"/>
<path d="M10.4125 10.6523C9.53106 11.4787 8.37949 11.9567 7.172 11.9973C7.17216 11.9984 7.17216 11.9995 7.172 12.0005V13.9989C8.91107 13.9592 10.5726 13.2713 11.8306 12.07L10.4159 10.6549L10.4125 10.6523Z" fill="#CF8D2E"/>
<path d="M6.82903 11.9973C5.62144 11.9567 4.46973 11.4787 3.58824 10.6523L3.58623 10.6549L2.17151 12.07C3.42957 13.2713 5.09109 13.9592 6.83018 13.9989V12.0005C6.82962 11.9995 6.82924 11.9985 6.82903 11.9973Z" fill="#191919"/>
<path d="M3.34648 10.4121C2.52035 9.53068 2.04246 8.37922 2.00176 7.17188H0.00109863C0.0405003 8.91083 0.728125 10.5723 1.92915 11.8305L3.3439 10.4155C3.34447 10.4142 3.34537 10.413 3.34648 10.4121Z" fill="#CF8D2E"/>
<path d="M11.9985 7.17188C11.9579 8.37932 11.48 9.53091 10.6538 10.4124C10.6548 10.4128 10.6557 10.4135 10.6564 10.4144L12.0711 11.8305C13.2725 10.5725 13.9604 8.91094 14 7.17188H11.9994H11.9985Z" fill="#191919"/>
<path d="M10.6538 3.58892C11.4799 4.47031 11.9578 5.62176 11.9985 6.82911H13.9992C13.9593 5.09068 13.2717 3.42977 12.0711 2.17188L10.6564 3.58662L10.6538 3.58892Z" fill="#CF8D2E"/>
<path d="M7.172 2.00151C8.37944 2.04214 9.53103 2.52003 10.4125 3.34623L10.4148 3.34365L11.8292 1.92862C10.5714 0.727784 8.91052 0.0399696 7.172 0V1.99836C7.17216 1.9994 7.17216 2.00047 7.172 2.00151Z" fill="#191919"/>
</svg>
