<svg width="28" height="25" viewBox="0 0 28 25" fill="none" xmlns="http://www.w3.org/2000/svg">
<path d="M0.5 3C0.5 1.61929 1.61929 0.5 3 0.5H25C26.3807 0.5 27.5 1.61929 27.5 3V22C27.5 23.3807 26.3807 24.5 25 24.5H3C1.61929 24.5 0.5 23.3807 0.5 22V3Z" fill="#191919" stroke="#525252"/>
<path d="M21 13C21 16.8664 17.8664 20 14 20C10.1336 20 7 16.8664 7 13C7 9.13359 10.1336 6 14 6C17.8664 6 21 9.13359 21 13ZM14 7.75V18.25C16.8984 18.25 19.25 15.8984 19.25 13C19.25 10.077 16.8984 7.75 14 7.75Z" fill="white"/>
</svg>
